HIERARCHY
ROOT Hips
{
	OFFSET 0.00000 0.00000 0.00000
	CHANNELS 6 Xposition Yposition Zposition Zrotation Yrotation Xrotation 
	JOINT LHipJoint
	{
		OFFSET 0 0 0
		CHANNELS 3 Zrotation Yrotation Xrotation
		JOINT LeftUpLeg
		{
			OFFSET 1.60223 -1.58443 0.78595
			CHANNELS 3 Zrotation Yrotation Xrotation
			JOINT LeftLeg
			{
				OFFSET 2.21690 -6.09089 0.00000
				CHANNELS 3 Zrotation Yrotation Xrotation
				JOINT LeftFoot
				{
					OFFSET 2.34805 -6.45122 0.00000
					CHANNELS 3 Zrotation Yrotation Xrotation
					JOINT LeftToeBase
					{
						OFFSET 0.35452 -0.97402 1.38549
						CHANNELS 3 Zrotation Yrotation Xrotation
						End Site
						{
							OFFSET 0.00000 -0.00000 0.82816
						}
					}
				}
			}
		}
	}
	JOINT RHipJoint
	{
		OFFSET 0 0 0
		CHANNELS 3 Zrotation Yrotation Xrotation
		JOINT RightUpLeg
		{
			OFFSET -1.56524 -1.58443 0.78595
			CHANNELS 3 Zrotation Yrotation Xrotation
			JOINT RightLeg
			{
				OFFSET -2.15558 -5.92241 0.00000
				CHANNELS 3 Zrotation Yrotation Xrotation
				JOINT RightFoot
				{
					OFFSET -2.35077 -6.45870 0.00000
					CHANNELS 3 Zrotation Yrotation Xrotation
					JOINT RightToeBase
					{
						OFFSET -0.26910 -0.73935 1.33295
						CHANNELS 3 Zrotation Yrotation Xrotation
						End Site
						{
							OFFSET -0.00000 -0.00000 0.75962
						}
					}
				}
			}
		}
	}
	JOINT LowerBack
	{
		OFFSET 0 0 0
		CHANNELS 3 Zrotation Yrotation Xrotation
		JOINT Spine
		{
			OFFSET -0.05489 1.97104 -0.02993
			CHANNELS 3 Zrotation Yrotation Xrotation
			JOINT Spine1
			{
				OFFSET -0.00702 1.94230 0.13626
				CHANNELS 3 Zrotation Yrotation Xrotation
				JOINT Neck
				{
					OFFSET 0 0 0
					CHANNELS 3 Zrotation Yrotation Xrotation
					JOINT Neck1
					{
						OFFSET -0.07858 1.62869 -0.02510
						CHANNELS 3 Zrotation Yrotation Xrotation
						JOINT Head
						{
							OFFSET 0.13978 1.59213 -0.29859
							CHANNELS 3 Zrotation Yrotation Xrotation
							End Site
							{
								OFFSET 0.05353 1.64420 -0.10000
							}
						}
					}
				}
				JOINT LeftShoulder
				{
					OFFSET 0 0 0
					CHANNELS 3 Zrotation Yrotation Xrotation
					JOINT LeftArm
					{
						OFFSET 3.48263 1.15278 0.52941
						CHANNELS 3 Zrotation Yrotation Xrotation
						JOINT LeftForeArm
						{
							OFFSET 4.59207 -0.00000 -0.00000
							CHANNELS 3 Zrotation Yrotation Xrotation
							JOINT LeftHand
							{
								OFFSET 2.98109 -0.00000 -0.00000
								CHANNELS 3 Zrotation Yrotation Xrotation
								JOINT LeftFingerBase
								{
									OFFSET 0 0 0
									CHANNELS 3 Zrotation Yrotation Xrotation
									JOINT LeftHandIndex1
									{
										OFFSET 0.48020 -0.00000 -0.00000
										CHANNELS 3 Zrotation Yrotation Xrotation
										End Site
										{
											OFFSET 0.38715 -0.00000 -0.00000
										}
									}
								}
								JOINT LThumb
								{
									OFFSET 0 0 0
									CHANNELS 3 Zrotation Yrotation Xrotation
									End Site
									{
										OFFSET 0.39306 -0.00000 0.39306
									}
								}
							}
						}
					}
				}
				JOINT RightShoulder
				{
					OFFSET 0 0 0
					CHANNELS 3 Zrotation Yrotation Xrotation
					JOINT RightArm
					{
						OFFSET -3.52496 1.12722 0.24548
						CHANNELS 3 Zrotation Yrotation Xrotation
						JOINT RightForeArm
						{
							OFFSET -4.76508 -0.00000 -0.00000
							CHANNELS 3 Zrotation Yrotation Xrotation
							JOINT RightHand
							{
								OFFSET -2.78902 -0.00000 -0.00000
								CHANNELS 3 Zrotation Yrotation Xrotation
								JOINT RightFingerBase
								{
									OFFSET 0 0 0
									CHANNELS 3 Zrotation Yrotation Xrotation
									JOINT RightHandIndex1
									{
										OFFSET -0.72130 -0.00000 -0.00000
										CHANNELS 3 Zrotation Yrotation Xrotation
										End Site
										{
											OFFSET -0.58153 -0.00000 -0.00000
										}
									}
								}
								JOINT RThumb
								{
									OFFSET 0 0 0
									CHANNELS 3 Zrotation Yrotation Xrotation
									End Site
									{
										OFFSET -0.59041 -0.00000 0.59041
									}
								}
							}
						}
					}
				}
			}
		}
	}
}
MOTION
Frames: 5
Frame Time: 0.00527704
0.00 0.00 0.00 -174.9420 -216.1980 -2690.8000 0.0000 0.0000 0.0000 -33.8656 -17.1131 -15.9014 3.8564 11.9668 35.6147 1.1143 -13.3882 -19.7561 0.3638 -3.8744 -10.7237 0.0000 0.0000 0.0000 7.1840 5.9392 -35.3263 -14.0132 -19.1180 72.2447 -0.1910 4.6828 -7.9441 -1.6867 8.1806 -23.2639 1.8270 5.6860 3.7505 -1.2024 7.9076 -9.3051 -3.3785 3.6420 -11.6719 3.0679 10.4306 0.2746 -1.6296 14.9821 20.4391 -0.1284 7.5584 6.5584 0.0000 0.0000 0.0000 -93.1146 33.6467 28.4380 105.0903 -59.1218 -73.0301 -0.0000 -0.0000 24.0735 10.0074 40.3181 6.5135 -7.1250 0.0000 -0.0000 -35.4881 67.5390 -20.2330 0.0000 0.0000 0.0000 -8.6654 52.9966 -57.9872 -135.0574 50.7403 -97.8057 0.0000 -0.0000 -31.4127 -51.7079 69.5748 -49.8859 7.1250 -0.0000 -0.0000 10.5493 46.3249 14.9936
0.00 0.00 0.00 -170.7390 -235.1600 -2686.1900 0.0000 0.0000 0.0000 -32.3281 -18.7043 -11.2123 3.1859 10.9900 32.2462 -0.7931 -24.9866 -11.8667 0.4826 -4.4549 -12.3602 0.0000 0.0000 0.0000 1.5556 15.6053 -28.8856 -10.1940 -17.5175 60.1348 -0.3165 11.5257 -12.0532 -2.3288 9.5197 -27.4350 1.6783 6.7301 2.4630 -3.3436 9.2280 -10.3278 -5.6565 4.2327 -11.6522 4.1470 13.1874 0.3006 1.6035 18.4618 21.5279 0.9756 9.6321 6.8058 -0.0000 -0.0000 0.0000 -93.3075 31.0667 31.0444 106.0163 -59.0082 -73.8243 -0.0000 -0.0000 23.9604 14.8516 39.0742 9.4891 -7.1250 0.0000 -0.0000 -28.3427 68.0100 -16.1653 -0.0000 -0.0000 0.0000 -42.2613 47.8229 -74.7654 -121.1906 55.9842 -86.6477 0.0000 -0.0000 -35.8907 -39.1048 71.2243 -37.5806 7.1250 -0.0000 -0.0000 14.0744 43.9580 20.1136
0.00 0.00 0.00 -164.2730 -249.1890 -2679.0300 0.0000 0.0000 0.0000 -29.9417 -21.6645 -9.7472 3.0791 10.8220 31.6820 -2.5825 -31.5337 -5.6106 0.4164 -4.1422 -11.4769 0.0000 0.0000 0.0000 -0.7245 24.6047 -21.8434 -7.8941 -16.0408 52.1803 -0.4181 12.1622 -13.3975 -2.3154 9.4942 -27.3539 1.7830 7.4438 1.4368 -5.0382 10.1695 -10.6867 -7.4801 4.6793 -11.0290 4.1965 13.9336 0.8299 3.6934 19.2971 21.0749 1.5574 10.2588 6.3764 -0.0000 0.0000 0.0000 -91.5116 29.1930 35.5961 106.0802 -59.0001 -73.8791 -0.0000 -0.0000 22.5386 16.4203 38.4509 10.3847 -7.1250 0.0000 -0.0000 -25.6768 67.9571 -14.5329 -0.0000 0.0000 0.0000 -56.3477 45.3965 -77.8251 -103.9375 59.2531 -72.0400 0.0000 -0.0000 -38.5231 -29.0897 72.2260 -27.9147 7.1250 -0.0000 -0.0000 16.6723 42.5410 23.9371
0.00 0.00 0.00 -17.8878 -257.4020 -2533.0500 0.0000 0.0000 0.0000 -23.0818 -32.7928 -9.3289 3.7257 11.7862 34.9798 -6.4579 -40.8722 7.4934 0.1210 -2.2424 -6.1760 0.0000 0.0000 0.0000 4.3091 28.1362 -7.4912 -5.2070 -13.6131 41.7093 0.4576 17.7008 -7.5561 -2.5162 9.8673 -28.5481 2.7875 8.0806 1.7983 -6.5880 11.1533 -9.8814 -9.6757 5.1581 -9.7121 2.8627 14.7677 1.5084 6.4687 20.5685 20.4192 2.4541 11.1426 5.6137 0.0000 0.0000 0.0000 -90.6005 26.8194 42.6792 107.0783 -58.8687 -74.7341 -0.0000 -0.0000 20.0073 11.5630 37.9499 7.1713 -7.1250 0.0000 -0.0000 -30.3841 66.0858 -16.0988 0.0000 0.0000 0.0000 -68.0032 51.0605 -73.6624 -73.8197 58.9873 -46.0351 0.0000 -0.0000 -33.6050 -8.9656 70.0053 -8.4332 7.1250 -0.0000 -0.0000 20.0824 37.4931 28.9938
0.00 0.00 0.00 -1.3997 -227.5750 -2517.0500 0.0000 0.0000 0.0000 -14.1721 -41.3788 -17.4397 4.7881 13.1412 39.8992 -7.6673 -42.9103 13.1664 0.4161 -4.1404 -11.4720 0.0000 0.0000 0.0000 11.3434 15.5457 -3.7549 -3.8921 -12.0154 35.7865 2.8032 29.3736 2.0080 -1.2731 7.1511 -20.1637 4.1511 8.2989 3.7846 -6.3771 11.6363 -8.7211 -10.4062 5.3435 -9.2832 0.0846 12.2402 1.6091 6.8819 17.5758 19.4636 2.7614 9.6944 5.0326 0.0000 -0.0000 0.0000 -91.9921 27.4441 42.5130 108.7471 -58.6295 -76.1608 -0.0000 -0.0000 16.9120 13.5480 36.4660 8.1503 -7.1250 0.0000 -0.0000 -26.3517 65.3864 -13.4012 0.0000 -0.0000 0.0000 -52.5057 61.6628 -50.1635 -75.1747 59.1530 -47.1975 0.0000 -0.0000 -24.6055 4.7426 69.8313 4.4530 7.1250 -0.0000 -0.0000 23.5383 36.0921 34.3272
